<?xml version="1.0" standalone="no"?>
<!DOCTYPE svg PUBLIC "-//W3C//DTD SVG 1.1//EN" "http://www.w3.org/Graphics/SVG/1.1/DTD/svg11.dtd" >
<svg xmlns="http://www.w3.org/2000/svg" xmlns:svg="http://www.w3.org/2000/svg" xmlns:xlink="http://www.w3.org/1999/xlink" viewBox="0 0 1024 1024"><path d="M394.88 443.08Q391.21 416.98 420.42 371.95Q421.7 358.19 400.24 326.87Q431.88 323.89 408.33 304.96Q450.95 259.37 456.88 187.43Q474.31 127.99 451.7 84.24Q455.38 109.82 472.42 105.34Q469.02 96.02 480.91 79.37Q500.05 103.46 530.41 95.51Q504.27 106.12 503.03 119.36Q533.04 106.02 548.76 138.56Q522.63 147.62 514.22 188.08Q537.08 173.75 525.31 198.21Q525.13 225.43 495.09 202.1Q521.09 219.64 554.35 208.89Q629.23 223.94 690.21 225.33Q829.41 235.16 839.87 228.2Q881.22 227.34 895.53 274.53Q914 262.23 902.34 283.18Q903.42 275.1 903.25 279.71Q896.93 271.24 877.58 310.72Q865.25 314.86 874.06 321.4Q876.59 308.99 864.66 300.85Q813.7 312.05 784.94 301.74L655.93 282.42L691.2 417.42L748.27 445.95Q778.43 432.99 828.32 420.9Q857.21 421.64 853.36 449.08Q888.2 461.49 891.34 445.31Q877.12 451.71 882.24 478.95Q897.35 486.56 871.98 468.94Q870.8 483.19 887.83 472.76Q887.15 513.7 867.34 513.89Q869.68 499.93 819 496.67Q802.41 496.91 766.94 500.39Q753.4 487.8 726.59 507.59Q704.17 518.27 670.51 523.57Q688.86 500.72 690.11 539.1Q669.78 559.74 691.17 576.11L691.6 591.08H766.99Q823.37 611.41 870.14 629.05Q863.74 613.92 869.13 662.57Q872.71 657.32 879 660.46Q872.84 679.64 847.74 688.41Q847.51 686.83 776.65 697.09Q779.41 667.88 746.97 668.32L676.41 702.95V806.26Q683.78 883.57 689.55 889.97Q668.94 893.35 685.93 897.21Q660.1 944.51 643.57 912.21Q625.01 923.62 635.39 905.38L614.39 908.65L601.07 639.05Q605.22 500.32 587.47 409.32Q588.3 332.86 603.12 318.11V281.95L513.37 284.43L505.57 360.71Q473.71 430.29 447.1 454.68Q456.21 471.58 413.9 459.98Q432.89 480.92 401.6 440.6Q395.71 460.72 398.28 432.69ZM112.26 406.68Q145.63 355.34 186.12 337.9Q209.34 304.35 233.53 250.57Q223.84 212.54 265 134.16Q291.22 142.75 306.2 98.37Q312.9 64.78 297.17 70.51Q310.58 49.61 317.5 70.49Q319.51 67.38 357.34 78.64Q380.59 55.71 351.99 92.88Q375.85 119.75 361.51 103.44Q377.97 97.83 355.2 154.9Q338.93 149.51 317.82 205.64L299.92 281.91V599.81Q305.91 665.4 280.73 740.75Q292.86 834.17 280.28 880.19Q302.11 911.34 293.93 922.25Q283.47 912.95 262.47 918.33Q249.85 930.3 241.22 944.95Q254.59 940.93 239.72 898.17Q219.09 898.02 228.21 877.04Q227.72 826.47 206.85 652.61Q209.79 551.27 193.45 488.11Q194.1 416.31 210.6 411.99Q191.23 400.64 200.74 423.08Q191.97 437.07 194.5 462.66Q151.56 461.99 138.15 478.18Q124.25 485.32 126.38 490.61Q128.95 528.3 136.57 489.93Q121.03 492.89 76.35 494.84Q100.14 477.9 87.3 460.78Q88.24 464.44 111.63 405.57Z" fill="black"></path></svg>