<?xml version="1.0" standalone="no"?>
<!DOCTYPE svg PUBLIC "-//W3C//DTD SVG 1.1//EN" "http://www.w3.org/Graphics/SVG/1.1/DTD/svg11.dtd" >
<svg xmlns="http://www.w3.org/2000/svg" xmlns:svg="http://www.w3.org/2000/svg" xmlns:xlink="http://www.w3.org/1999/xlink" viewBox="0 0 1024 1024"><path d="M416.0 452.0Q416.0 436.0 427.0 402.0Q433.0 387.0 438.0 362.0Q443.0 337.0 447.0 315.0Q456.0 260.0 468.5 198.5Q481.0 137.0 488.0 123.0Q490.0 117.0 497.5 113.5Q505.0 110.0 514.0 110.0Q524.0 110.0 530.5 114.5Q537.0 119.0 542.0 134.0Q550.0 146.0 550.0 157.0Q550.0 168.0 542.0 193.0Q539.0 209.0 535.5 221.0Q532.0 233.0 532.0 236.0Q533.0 236.0 582.0 238.0Q631.0 240.0 704.0 242.0Q838.0 245.0 875.5 251.5Q913.0 258.0 917.0 281.0Q919.0 288.0 919.0 294.0Q919.0 297.0 918.0 301.5Q917.0 306.0 910.0 314.0Q904.0 323.0 891.5 324.0Q879.0 325.0 867.0 325.0Q843.0 325.0 796.0 323.0L694.0 319.0L697.0 449.0L773.0 450.0Q809.0 452.0 835.0 455.5Q861.0 459.0 874.0 465.0Q892.0 470.0 896.5 476.0Q901.0 482.0 901.0 493.0Q901.0 495.0 901.0 497.0Q901.0 500.0 901.0 503.0Q901.0 523.0 887.5 526.5Q874.0 530.0 849.0 530.0Q826.0 530.0 791.0 528.0Q754.0 525.0 733.0 524.0Q711.0 525.0 704.0 529.0Q697.0 533.0 697.0 559.0Q697.0 570.0 699.0 585.0L703.0 629.0H778.0Q856.0 629.0 878.5 639.0Q901.0 649.0 901.0 667.0Q901.0 674.0 899.0 681.0Q893.0 697.0 870.5 702.0Q848.0 707.0 809.0 707.0Q795.0 707.0 778.0 706.0L701.0 704.0V812.0Q701.0 886.0 698.0 906.5Q695.0 927.0 686.0 935.0Q674.0 945.0 665.0 945.0Q656.0 945.0 641.0 935.0L625.0 922.0L622.0 645.0Q620.0 526.0 618.0 440.5Q616.0 355.0 616.0 342.0V317.0L530.0 321.0L515.0 377.0Q497.0 450.0 480.5 470.0Q464.0 490.0 452.0 490.0Q441.0 490.0 429.0 479.0Q416.0 468.0 416.0 452.0ZM131.0 429.0Q157.0 382.0 188.0 342.0Q215.0 306.0 239.0 264.0Q263.0 222.0 287.0 170.0Q298.0 143.0 308.5 121.0Q319.0 99.0 323.0 92.0Q336.0 78.0 350.0 78.0Q358.0 78.0 373.0 86.5Q388.0 95.0 388.0 121.0Q388.0 124.0 388.0 128.0Q384.0 135.0 372.5 161.5Q361.0 188.0 346.0 220.0L310.0 296.0V605.0Q311.0 705.0 311.0 770.0Q311.0 835.0 309.5 881.0Q308.0 927.0 303.0 931.0Q292.0 944.0 284.5 945.0Q277.0 946.0 275.0 946.0Q263.0 946.0 249.0 938.0Q242.0 938.0 239.0 893.0Q236.0 848.0 235.0 672.0Q235.0 564.0 233.0 491.0Q231.0 418.0 229.0 416.0Q226.0 416.0 217.0 431.5Q208.0 447.0 195.0 468.0Q177.0 499.0 167.0 511.5Q157.0 524.0 146.0 528.0Q142.0 529.0 137.0 529.0Q125.0 529.0 115.0 521.0Q105.0 513.0 105.0 494.0Q105.0 476.0 131.0 429.0Z" fill="black"></path></svg>